<mxfile host="d16b281d-b5c1-45e7-bce7-ec8c76339803" modified="2020-09-04T02:44:27.143Z" agent="5.0 (Windows NT 10.0; Win64; x64) AppleWebKit/537.36 (KHTML, like Gecko) Code/1.48.2 Chrome/78.0.3904.130 Electron/7.3.2 Safari/537.36" etag="2A2IkFSoHXs3de7ODWq0" version="13.1.3">
    <diagram id="6hGFLwfOUW9BJ-s0fimq" name="Page-1">
        <mxGraphModel dx="1789" dy="824" grid="1" gridSize="10" guides="1" tooltips="1" connect="1" arrows="1" fold="1" page="1" pageScale="1" pageWidth="1500" pageHeight="300" math="0" shadow="0">
            <root>
                <mxCell id="0"/>
                <mxCell id="1" parent="0"/>
                <mxCell id="57" value="" style="rounded=0;whiteSpace=wrap;html=1;strokeWidth=3;fillColor=none;dashed=1;" vertex="1" parent="1">
                    <mxGeometry x="7" y="25" width="460" height="250" as="geometry"/>
                </mxCell>
                <mxCell id="44" value="" style="rounded=0;whiteSpace=wrap;html=1;strokeWidth=3;fillColor=none;dashed=1;" parent="1" vertex="1">
                    <mxGeometry x="1002.94" y="25" width="490" height="250" as="geometry"/>
                </mxCell>
                <mxCell id="40" value="" style="rounded=0;whiteSpace=wrap;html=1;strokeWidth=3;fillColor=none;dashed=1;" parent="1" vertex="1">
                    <mxGeometry x="492.94000000000005" y="25" width="480" height="250" as="geometry"/>
                </mxCell>
                <mxCell id="15" style="edgeStyle=orthogonalEdgeStyle;rounded=0;orthogonalLoop=1;jettySize=auto;html=1;exitX=1;exitY=0.5;exitDx=0;exitDy=0;strokeWidth=4;" parent="1" source="3" target="6" edge="1">
                    <mxGeometry relative="1" as="geometry"/>
                </mxCell>
                <mxCell id="3" value="&lt;span style=&quot;font-size: 20px&quot;&gt;需求&lt;br&gt;&lt;/span&gt;" style="rounded=1;whiteSpace=wrap;html=1;fontFamily=微軟正黑體;fontSize=24;fontStyle=1;strokeWidth=3;" parent="1" vertex="1">
                    <mxGeometry x="542.94" y="110" width="160" height="70" as="geometry"/>
                </mxCell>
                <mxCell id="37" style="edgeStyle=orthogonalEdgeStyle;rounded=0;orthogonalLoop=1;jettySize=auto;html=1;exitX=1;exitY=0.5;exitDx=0;exitDy=0;entryX=0;entryY=0.5;entryDx=0;entryDy=0;strokeWidth=4;" parent="1" source="4" target="3" edge="1">
                    <mxGeometry relative="1" as="geometry"/>
                </mxCell>
                <mxCell id="4" value="&lt;span style=&quot;font-size: 20px&quot;&gt;想法&lt;/span&gt;" style="rounded=1;whiteSpace=wrap;html=1;fontFamily=微軟正黑體;fontSize=24;fontStyle=1;strokeWidth=3;" parent="1" vertex="1">
                    <mxGeometry x="272.94" y="110" width="160" height="70" as="geometry"/>
                </mxCell>
                <mxCell id="39" style="edgeStyle=orthogonalEdgeStyle;rounded=0;orthogonalLoop=1;jettySize=auto;html=1;exitX=1;exitY=0.5;exitDx=0;exitDy=0;entryX=0;entryY=0.5;entryDx=0;entryDy=0;strokeWidth=4;" parent="1" source="6" target="38" edge="1">
                    <mxGeometry relative="1" as="geometry"/>
                </mxCell>
                <mxCell id="6" value="&lt;span style=&quot;font-size: 20px&quot;&gt;規格&lt;br&gt;&lt;/span&gt;" style="rounded=1;whiteSpace=wrap;html=1;fontFamily=微軟正黑體;fontSize=24;fontStyle=1;strokeWidth=3;" parent="1" vertex="1">
                    <mxGeometry x="772.94" y="110" width="160" height="70" as="geometry"/>
                </mxCell>
                <mxCell id="49" style="edgeStyle=orthogonalEdgeStyle;rounded=0;orthogonalLoop=1;jettySize=auto;html=1;exitX=1;exitY=0.5;exitDx=0;exitDy=0;entryX=0;entryY=0.5;entryDx=0;entryDy=0;strokeWidth=4;" parent="1" source="38" target="47" edge="1">
                    <mxGeometry relative="1" as="geometry"/>
                </mxCell>
                <mxCell id="38" value="&lt;span style=&quot;font-size: 20px&quot;&gt;實作&lt;br&gt;&lt;/span&gt;" style="rounded=1;whiteSpace=wrap;html=1;fontFamily=微軟正黑體;fontSize=24;fontStyle=1;strokeWidth=3;" parent="1" vertex="1">
                    <mxGeometry x="1042.94" y="110" width="160" height="70" as="geometry"/>
                </mxCell>
                <mxCell id="41" value="&lt;div&gt;&lt;span style=&quot;font-size: 20px&quot;&gt;&lt;b&gt;專案負責人&lt;/b&gt;&lt;/span&gt;&lt;/div&gt;" style="text;whiteSpace=wrap;html=1;align=center;" parent="1" vertex="1">
                    <mxGeometry x="668.8800000000001" y="205" width="128.12" height="30" as="geometry"/>
                </mxCell>
                <mxCell id="46" value="&lt;div&gt;&lt;span style=&quot;font-size: 20px&quot;&gt;&lt;b&gt;開發人員&lt;/b&gt;&lt;/span&gt;&lt;/div&gt;" style="text;whiteSpace=wrap;html=1;align=center;" parent="1" vertex="1">
                    <mxGeometry x="1183.88" y="205" width="128.12" height="30" as="geometry"/>
                </mxCell>
                <mxCell id="47" value="&lt;span style=&quot;font-size: 20px&quot;&gt;解決目的&lt;br&gt;&lt;/span&gt;" style="rounded=1;whiteSpace=wrap;html=1;fontFamily=微軟正黑體;fontSize=24;fontStyle=1;strokeWidth=3;" parent="1" vertex="1">
                    <mxGeometry x="1292.94" y="110" width="160" height="70" as="geometry"/>
                </mxCell>
                <mxCell id="61" style="edgeStyle=orthogonalEdgeStyle;rounded=0;orthogonalLoop=1;jettySize=auto;html=1;exitX=1;exitY=0.5;exitDx=0;exitDy=0;entryX=0;entryY=0.5;entryDx=0;entryDy=0;strokeWidth=4;" edge="1" parent="1" source="60" target="4">
                    <mxGeometry relative="1" as="geometry"/>
                </mxCell>
                <mxCell id="60" value="&lt;span style=&quot;font-size: 20px&quot;&gt;目的&lt;/span&gt;" style="rounded=1;whiteSpace=wrap;html=1;fontFamily=微軟正黑體;fontSize=24;fontStyle=1;strokeWidth=3;" vertex="1" parent="1">
                    <mxGeometry x="52.94" y="110" width="160" height="70" as="geometry"/>
                </mxCell>
                <mxCell id="62" value="&lt;div&gt;&lt;span style=&quot;font-size: 20px&quot;&gt;&lt;b&gt;需求方&lt;/b&gt;&lt;/span&gt;&lt;/div&gt;" style="text;whiteSpace=wrap;html=1;align=center;" vertex="1" parent="1">
                    <mxGeometry x="172.94000000000005" y="205" width="128.12" height="30" as="geometry"/>
                </mxCell>
            </root>
        </mxGraphModel>
    </diagram>
</mxfile>